<svg width="24" height="24" viewBox="0 0 24 24" fill="none" xmlns="http://www.w3.org/2000/svg">
  <rect width="24" height="24" rx="12" fill="#FF5B00"/>
  <circle cx="12" cy="12" r="10" stroke="white" stroke-width="2"/>
  <path d="M11.5423 6.54395H11.84C12.7177 6.82023 13.533 7.28259 14.3834 7.64064C14.8059 7.84222 15.2506 7.99446 15.6524 8.24537C16.2206 8.62174 16.2934 9.59721 15.7811 10.0638C14.6408 11.1281 13.4966 12.1853 12.368 13.2622C12.13 13.5005 11.8244 13.6851 11.4903 13.6513C10.9273 13.64 10.4254 13.0832 10.4579 12.4672C10.5099 10.8673 10.5788 9.26877 10.6347 7.66883C10.6269 7.10216 11.0599 6.66658 11.5423 6.54395Z" fill="white"/>
  <path d="M9.45299 14.0118C9.9835 13.7172 10.5894 13.9611 11.1134 14.1528C11.5997 14.3121 12.0587 14.7547 12.0366 15.3481C12.0171 16.0093 11.8286 16.7155 11.3826 17.1877C10.8924 17.6501 10.1876 17.4132 9.63893 17.2173C9.10321 17.0482 8.5688 16.5703 8.62862 15.9049C8.68713 15.2114 8.88216 14.4135 9.45299 14.0118Z" fill="white"/>
  <circle cx="12" cy="12" r="10.5" stroke="#FF5B00" stroke-dasharray="3 3"/>
</svg>
