<svg width="24" height="24" viewBox="0 0 24 24" fill="none" xmlns="http://www.w3.org/2000/svg">
<path d="M4 19.9566V10.0229C4 9.73032 4.06552 9.45336 4.19657 9.19203C4.32762 8.9307 4.50819 8.71546 4.73829 8.54632L10.8926 3.88574C11.2149 3.63965 11.5829 3.5166 11.9966 3.5166C12.4103 3.5166 12.7806 3.63965 13.1074 3.88574L19.2617 8.54517C19.4926 8.71432 19.6731 8.92994 19.8034 9.19203C19.9345 9.45336 20 9.73032 20 10.0229V19.9566C20 20.2629 19.8861 20.5299 19.6583 20.7577C19.4305 20.9856 19.1634 21.0995 18.8571 21.0995H14.9897C14.7276 21.0995 14.5082 21.0111 14.3314 20.8343C14.1547 20.6568 14.0663 20.4374 14.0663 20.176V14.7257C14.0663 14.4644 13.9779 14.2454 13.8011 14.0686C13.6236 13.8911 13.4042 13.8023 13.1429 13.8023H10.8571C10.5958 13.8023 10.3768 13.8911 10.2 14.0686C10.0225 14.2454 9.93371 14.4644 9.93371 14.7257V20.1772C9.93371 20.4385 9.84533 20.6576 9.66857 20.8343C9.49181 21.0111 9.27276 21.0995 9.01143 21.0995H5.14286C4.83657 21.0995 4.56952 20.9856 4.34171 20.7577C4.1139 20.5299 4 20.2629 4 19.9566Z" fill="white"/>
</svg>
