<svg width="24" height="24" viewBox="0 0 24 24" fill="none" xmlns="http://www.w3.org/2000/svg">
<path fill-rule="evenodd" clip-rule="evenodd" d="M9.00006 8C9.00006 7.20435 9.31613 6.44129 9.87874 5.87868C10.4413 5.31607 11.2044 5 12.0001 5C12.7957 5 13.5588 5.31607 14.1214 5.87868C14.684 6.44129 15.0001 7.20435 15.0001 8H9.00006ZM7.00006 8C7.00006 6.67392 7.52684 5.40215 8.46452 4.46447C9.40221 3.52678 10.674 3 12.0001 3C13.3261 3 14.5979 3.52678 15.5356 4.46447C16.4733 5.40215 17.0001 6.67392 17.0001 8H20.0001C20.139 7.99999 20.2764 8.02893 20.4035 8.08496C20.5306 8.14099 20.6446 8.22289 20.7383 8.32544C20.832 8.42799 20.9034 8.54894 20.9477 8.68058C20.9921 8.81221 21.0086 8.95165 20.9961 9.09L20.1611 18.272C20.0932 19.0174 19.7492 19.7105 19.1965 20.2152C18.6439 20.7199 17.9225 20.9998 17.1741 21H6.82606C6.07761 20.9998 5.35625 20.7199 4.8036 20.2152C4.25094 19.7105 3.90692 19.0174 3.83906 18.272L3.00406 9.09C2.99156 8.95165 3.00802 8.81221 3.05239 8.68058C3.09676 8.54894 3.16807 8.42799 3.26178 8.32544C3.35548 8.22289 3.46953 8.14099 3.59664 8.08496C3.72375 8.02893 3.86114 7.99999 4.00006 8H7.00006Z" fill="white"/>
</svg>
