<svg width="24" height="24" viewBox="0 0 24 24" fill="none" xmlns="http://www.w3.org/2000/svg">
<path d="M12 2C17.523 2 22 6.477 22 12C22 17.523 17.523 22 12 22C6.477 22 2 17.523 2 12C2 6.477 6.477 2 12 2ZM12 15.546C11.7348 15.546 11.4804 15.6513 11.2929 15.8389C11.1054 16.0264 11 16.2808 11 16.546C11 16.8112 11.1054 17.0656 11.2929 17.2531C11.4804 17.4406 11.7348 17.546 12 17.546C12.2652 17.546 12.5196 17.4406 12.7071 17.2531C12.8946 17.0656 13 16.8112 13 16.546C13 16.2808 12.8946 16.0264 12.7071 15.8389C12.5196 15.6513 12.2652 15.546 12 15.546ZM12 6.04599C11.0386 6.04599 10.1166 6.42791 9.43674 7.10772C8.75692 7.78754 8.375 8.70958 8.375 9.67099C8.375 9.9362 8.48036 10.1906 8.66789 10.3781C8.85543 10.5656 9.10978 10.671 9.375 10.671C9.64022 10.671 9.89457 10.5656 10.0821 10.3781C10.2696 10.1906 10.375 9.9362 10.375 9.67099C10.3753 9.37602 10.4559 9.08671 10.6082 8.83407C10.7604 8.58144 10.9786 8.375 11.2392 8.23691C11.4998 8.09881 11.7932 8.03426 12.0877 8.05018C12.3822 8.06609 12.6669 8.16188 12.9111 8.32726C13.1553 8.49264 13.35 8.72138 13.4741 8.98896C13.5982 9.25653 13.6472 9.55284 13.6157 9.84612C13.5843 10.1394 13.4736 10.4186 13.2955 10.6538C13.1175 10.8889 12.8788 11.0712 12.605 11.181C11.929 11.451 11 12.143 11 13.296V13.546C11 13.8112 11.1054 14.0656 11.2929 14.2531C11.4804 14.4406 11.7348 14.546 12 14.546C12.2652 14.546 12.5196 14.4406 12.7071 14.2531C12.8946 14.0656 13 13.8112 13 13.546C13 13.302 13.05 13.18 13.261 13.076L13.348 13.036C14.1288 12.7219 14.776 12.1459 15.1787 11.4069C15.5814 10.6679 15.7145 9.81177 15.5551 8.98537C15.3958 8.15897 14.9539 7.41375 14.3052 6.87746C13.6566 6.34117 12.8416 6.04721 12 6.04599Z" fill="white"/>
</svg>
